<?xml version="1.0" encoding="utf-8"?>
<!-- Generator: Adobe Illustrator 21.0.1, SVG Export Plug-In . SVG Version: 6.00 Build 0)  -->
<svg version="1.1" id="Layer_1" xmlns="http://www.w3.org/2000/svg" xmlns:xlink="http://www.w3.org/1999/xlink" x="0px" y="0px"
	 viewBox="0 0 118.97 32" style="enable-background:new 0 0 118.97 32;" xml:space="preserve">
<style type="text/css">
	.Drop_x0020_Shadow{fill:none;}
	.Round_x0020_Corners_x0020_2_x0020_pt{fill:#FFFFFF;stroke:#231F20;stroke-miterlimit:10;}
	.Live_x0020_Reflect_x0020_X{fill:none;}
	.Bevel_x0020_Soft{fill:url(#SVGID_1_);}
	.Dusk{fill:#FFFFFF;}
	.Foliage_GS{fill:#FFDD00;}
	.Pompadour_GS{fill-rule:evenodd;clip-rule:evenodd;fill:#44ADE2;}
	.st0{fill:#009BFF;}
	.st1{fill:#404040;}
</style>
<linearGradient id="SVGID_1_" gradientUnits="userSpaceOnUse" x1="147.9722" y1="-300.0195" x2="148.6792" y2="-299.3124">
	<stop  offset="0" style="stop-color:#DEDFE3"/>
	<stop  offset="0.1783" style="stop-color:#DADBDF"/>
	<stop  offset="0.3611" style="stop-color:#CECFD3"/>
	<stop  offset="0.546" style="stop-color:#B9BCBF"/>
	<stop  offset="0.7324" style="stop-color:#9CA0A2"/>
	<stop  offset="0.9181" style="stop-color:#787D7E"/>
	<stop  offset="1" style="stop-color:#656B6C"/>
</linearGradient>
<g>
	<path class="st0" d="M10.96,11.99c-0.49,0.5-1.16,0.88-2.02,1.16c-0.86,0.28-1.81,0.42-2.85,0.42c-1.24,0-2.32-0.25-3.23-0.75
		c-0.91-0.5-1.62-1.21-2.12-2.11C0.25,9.8,0,8.75,0,7.57c0-1.19,0.25-2.23,0.76-3.12C1.27,3.56,1.98,2.86,2.9,2.36
		C3.81,1.85,4.88,1.6,6.1,1.6c2.08,0,3.69,0.78,4.83,2.34L8.4,5.42C8.17,5.03,7.84,4.73,7.43,4.53C7.02,4.32,6.56,4.21,6.07,4.21
		c-0.9,0-1.61,0.3-2.11,0.91C3.45,5.74,3.2,6.55,3.2,7.57c0,1.14,0.29,1.99,0.86,2.55c0.57,0.56,1.4,0.84,2.48,0.84
		c0.51,0,1.01-0.08,1.51-0.25V9.01H6V6.72h4.96V11.99z"/>
	<path class="st0" d="M15.29,10.18v3.34h-2.95V4.89h2.69l0.19,1.44c0.18-0.46,0.48-0.84,0.89-1.13c0.41-0.29,0.89-0.43,1.43-0.43
		c0.31,0,0.54,0.04,0.69,0.12v2.69c-0.12-0.05-0.26-0.08-0.42-0.1c-0.15-0.02-0.32-0.03-0.52-0.03c-0.59,0-1.07,0.22-1.45,0.65
		C15.48,8.54,15.29,9.23,15.29,10.18z"/>
	<path class="st0" d="M27.78,12.63c-0.43,0.31-0.97,0.56-1.64,0.78c-0.66,0.21-1.36,0.32-2.11,0.32c-1.03,0-1.91-0.19-2.63-0.57
		c-0.73-0.38-1.29-0.91-1.68-1.58c-0.39-0.68-0.58-1.46-0.58-2.34c0-0.89,0.19-1.68,0.58-2.37c0.38-0.69,0.92-1.23,1.59-1.62
		c0.68-0.39,1.47-0.58,2.37-0.58c0.88,0,1.66,0.19,2.33,0.57c0.67,0.38,1.2,0.9,1.58,1.58c0.38,0.67,0.57,1.46,0.57,2.36
		c0,0.12-0.01,0.25-0.03,0.39c-0.02,0.14-0.04,0.28-0.06,0.42h-6.01c0.27,0.99,1.01,1.49,2.22,1.49c0.54,0,1.02-0.08,1.44-0.25
		c0.42-0.17,0.77-0.34,1.05-0.51L27.78,12.63z M23.75,6.8c-0.96,0-1.54,0.51-1.73,1.52h3.29c-0.08-0.55-0.27-0.95-0.57-1.18
		C24.44,6.92,24.11,6.8,23.75,6.8z"/>
	<path class="st0" d="M37.78,12.63c-0.43,0.31-0.97,0.56-1.64,0.78c-0.66,0.21-1.36,0.32-2.11,0.32c-1.03,0-1.91-0.19-2.63-0.57
		c-0.73-0.38-1.29-0.91-1.68-1.58c-0.39-0.68-0.58-1.46-0.58-2.34c0-0.89,0.19-1.68,0.58-2.37c0.38-0.69,0.92-1.23,1.59-1.62
		c0.68-0.39,1.47-0.58,2.37-0.58c0.88,0,1.66,0.19,2.33,0.57c0.67,0.38,1.2,0.9,1.58,1.58c0.38,0.67,0.57,1.46,0.57,2.36
		c0,0.12-0.01,0.25-0.03,0.39c-0.02,0.14-0.04,0.28-0.06,0.42h-6.01c0.27,0.99,1.01,1.49,2.22,1.49c0.54,0,1.02-0.08,1.44-0.25
		c0.42-0.17,0.77-0.34,1.05-0.51L37.78,12.63z M33.74,6.8c-0.96,0-1.54,0.51-1.73,1.52h3.29c-0.08-0.55-0.27-0.95-0.57-1.18
		C34.43,6.92,34.1,6.8,33.74,6.8z"/>
	<path class="st0" d="M42.6,8.75v4.76h-2.95V4.89h2.69l0.15,1.14c0.28-0.41,0.65-0.73,1.1-0.98c0.45-0.25,0.95-0.37,1.49-0.37
		c0.94,0,1.69,0.31,2.25,0.91c0.56,0.61,0.85,1.49,0.85,2.63v5.3h-2.95V8.55c0-0.51-0.11-0.88-0.34-1.13
		c-0.23-0.24-0.54-0.36-0.95-0.36c-0.41,0-0.73,0.13-0.98,0.39C42.73,7.71,42.6,8.14,42.6,8.75z"/>
	<path class="st0" d="M63.88,10.35c0,0.62-0.18,1.17-0.53,1.65c-0.35,0.48-0.84,0.85-1.48,1.12c-0.64,0.27-1.39,0.4-2.25,0.4h-5.22
		V1.99h5c1.24,0,2.22,0.27,2.94,0.8c0.72,0.54,1.08,1.27,1.08,2.19c0,0.64-0.16,1.19-0.48,1.65c-0.32,0.46-0.73,0.79-1.21,1
		c0.65,0.2,1.18,0.54,1.57,1.02C63.69,9.14,63.88,9.7,63.88,10.35z M57.34,6.57h1.85c0.37,0,0.67-0.1,0.88-0.3
		c0.21-0.2,0.32-0.47,0.32-0.8c0-0.33-0.11-0.59-0.34-0.78c-0.23-0.19-0.53-0.29-0.9-0.29h-1.81V6.57z M57.34,11.11h2.14
		c0.38,0,0.69-0.11,0.93-0.32c0.24-0.21,0.36-0.48,0.36-0.8c0-0.34-0.12-0.62-0.36-0.83c-0.24-0.21-0.55-0.32-0.93-0.32h-2.14V11.11
		z"/>
	<path class="st0" d="M70.41,13.51l-0.15-1.14c-0.57,0.9-1.42,1.36-2.58,1.36c-0.51,0-0.97-0.11-1.38-0.33
		c-0.41-0.22-0.74-0.52-0.98-0.91c-0.24-0.38-0.36-0.83-0.36-1.34c0-0.96,0.38-1.71,1.13-2.24c0.75-0.53,1.74-0.8,2.97-0.8
		c0.38,0,0.79,0.03,1.22,0.1c-0.05-0.43-0.23-0.75-0.55-0.97c-0.32-0.22-0.71-0.33-1.18-0.33c-0.41,0-0.82,0.08-1.23,0.23
		c-0.41,0.15-0.8,0.34-1.18,0.55l-1-1.9c0.56-0.36,1.17-0.64,1.83-0.84c0.65-0.2,1.31-0.3,1.97-0.3c0.79,0,1.5,0.14,2.13,0.41
		c0.63,0.27,1.13,0.68,1.49,1.24c0.36,0.55,0.54,1.25,0.54,2.1v5.1H70.41z M67.82,10.72c0,0.26,0.1,0.47,0.29,0.64
		c0.19,0.16,0.44,0.25,0.75,0.25c0.41,0,0.75-0.14,1.03-0.42c0.28-0.28,0.42-0.62,0.42-1.04V9.85c-0.31-0.06-0.63-0.08-0.97-0.08
		c-0.43,0-0.79,0.07-1.08,0.22C67.96,10.14,67.82,10.38,67.82,10.72z"/>
	<path class="st0" d="M80.71,12.84c-0.52,1.33-1.11,2.33-1.78,2.98c-0.67,0.65-1.51,0.98-2.54,0.98c-0.46,0-0.88-0.05-1.25-0.15
		c-0.37-0.1-0.69-0.23-0.95-0.37l0.83-2.03c0.16,0.08,0.33,0.15,0.53,0.2c0.19,0.06,0.4,0.08,0.61,0.08c0.3,0,0.58-0.07,0.82-0.22
		c0.24-0.15,0.45-0.41,0.64-0.8l0.14-0.31l-3.9-8.32h3.25l1.91,5.17l1.58-5.17h3.2L80.71,12.84z"/>
	<path class="st1" d="M0.14,28.95V17.43h4.88c1.36,0,2.43,0.35,3.22,1.04c0.79,0.69,1.19,1.64,1.19,2.84c0,0.78-0.18,1.45-0.53,2.02
		c-0.36,0.57-0.86,1.01-1.5,1.32c-0.64,0.31-1.41,0.47-2.3,0.47h-1.9v3.83H0.14z M3.19,22.7h1.52c0.49,0,0.87-0.13,1.15-0.38
		c0.28-0.25,0.42-0.59,0.42-1.01c0-0.42-0.14-0.75-0.42-1.01c-0.28-0.25-0.67-0.38-1.15-0.38H3.19V22.7z"/>
	<path class="st1" d="M13.88,25.61v3.34h-2.95v-8.62h2.69l0.19,1.44c0.18-0.46,0.48-0.84,0.89-1.13c0.41-0.29,0.89-0.43,1.43-0.43
		c0.31,0,0.54,0.04,0.69,0.12v2.69c-0.12-0.05-0.26-0.08-0.42-0.1c-0.15-0.02-0.32-0.03-0.52-0.03c-0.59,0-1.07,0.22-1.45,0.65
		C14.07,23.97,13.88,24.67,13.88,25.61z"/>
	<path class="st1" d="M26.37,28.07c-0.43,0.31-0.97,0.56-1.64,0.78c-0.66,0.21-1.36,0.32-2.11,0.32c-1.03,0-1.91-0.19-2.63-0.57
		c-0.73-0.38-1.29-0.91-1.68-1.58c-0.39-0.68-0.58-1.46-0.58-2.34c0-0.89,0.19-1.68,0.58-2.37c0.38-0.69,0.92-1.23,1.59-1.62
		c0.68-0.39,1.47-0.58,2.37-0.58c0.88,0,1.66,0.19,2.33,0.57c0.67,0.38,1.2,0.9,1.58,1.58c0.38,0.67,0.57,1.46,0.57,2.36
		c0,0.12-0.01,0.25-0.03,0.39c-0.02,0.14-0.04,0.28-0.06,0.42h-6.01c0.27,0.99,1.01,1.49,2.22,1.49c0.54,0,1.02-0.08,1.44-0.25
		c0.42-0.17,0.77-0.34,1.05-0.51L26.37,28.07z M22.34,22.24c-0.96,0-1.54,0.51-1.73,1.52h3.29c-0.08-0.55-0.27-0.95-0.57-1.18
		C23.03,22.36,22.7,22.24,22.34,22.24z"/>
	<path class="st1" d="M31.46,29.17c-0.75,0-1.44-0.12-2.09-0.36c-0.65-0.24-1.23-0.58-1.75-1.02l1.25-1.66
		c0.4,0.32,0.82,0.57,1.28,0.77c0.46,0.2,0.91,0.3,1.35,0.3c0.29,0,0.53-0.05,0.7-0.15c0.18-0.1,0.26-0.25,0.26-0.46
		c0-0.21-0.1-0.39-0.3-0.52c-0.2-0.13-0.55-0.26-1.06-0.38l-0.81-0.2c-1.62-0.43-2.42-1.29-2.42-2.59c0-0.58,0.16-1.07,0.47-1.49
		c0.32-0.42,0.75-0.74,1.3-0.97c0.55-0.23,1.2-0.34,1.93-0.34c0.72,0,1.4,0.11,2.04,0.34c0.64,0.23,1.22,0.55,1.75,0.98l-1.29,1.69
		c-0.4-0.32-0.81-0.57-1.25-0.76c-0.44-0.19-0.85-0.29-1.24-0.29c-0.62,0-0.93,0.2-0.93,0.61c0,0.18,0.09,0.33,0.28,0.44
		c0.19,0.11,0.45,0.21,0.79,0.31l1.1,0.3c0.82,0.23,1.43,0.56,1.83,1.02c0.4,0.45,0.59,0.99,0.59,1.61c0,0.56-0.16,1.06-0.47,1.48
		c-0.32,0.42-0.76,0.75-1.33,0.98C32.88,29.06,32.21,29.17,31.46,29.17z"/>
	<path class="st1" d="M40.06,29.17c-0.75,0-1.44-0.12-2.09-0.36c-0.65-0.24-1.23-0.58-1.75-1.02l1.25-1.66
		c0.4,0.32,0.82,0.57,1.28,0.77c0.46,0.2,0.91,0.3,1.35,0.3c0.29,0,0.53-0.05,0.7-0.15c0.18-0.1,0.26-0.25,0.26-0.46
		c0-0.21-0.1-0.39-0.3-0.52c-0.2-0.13-0.55-0.26-1.06-0.38l-0.81-0.2c-1.62-0.43-2.42-1.29-2.42-2.59c0-0.58,0.16-1.07,0.47-1.49
		c0.32-0.42,0.75-0.74,1.3-0.97c0.55-0.23,1.2-0.34,1.93-0.34c0.72,0,1.4,0.11,2.04,0.34c0.64,0.23,1.22,0.55,1.75,0.98l-1.29,1.69
		c-0.4-0.32-0.81-0.57-1.25-0.76c-0.44-0.19-0.85-0.29-1.24-0.29c-0.62,0-0.93,0.2-0.93,0.61c0,0.18,0.09,0.33,0.28,0.44
		c0.19,0.11,0.45,0.21,0.79,0.31l1.1,0.3c0.82,0.23,1.43,0.56,1.83,1.02c0.4,0.45,0.59,0.99,0.59,1.61c0,0.56-0.16,1.06-0.47,1.48
		c-0.32,0.42-0.76,0.75-1.33,0.98C41.48,29.06,40.82,29.17,40.06,29.17z"/>
	<path class="st1" d="M60.07,27.6c-0.49,0.5-1.16,0.88-2.02,1.16c-0.86,0.28-1.81,0.42-2.85,0.42c-1.24,0-2.32-0.25-3.23-0.75
		c-0.91-0.5-1.62-1.21-2.12-2.11c-0.5-0.9-0.75-1.95-0.75-3.13c0-1.19,0.25-2.23,0.76-3.12c0.51-0.89,1.22-1.59,2.13-2.09
		c0.92-0.5,1.98-0.75,3.2-0.75c2.08,0,3.69,0.78,4.83,2.34l-2.52,1.47c-0.24-0.38-0.56-0.68-0.97-0.89
		c-0.41-0.21-0.87-0.31-1.36-0.31c-0.9,0-1.61,0.3-2.11,0.91c-0.5,0.61-0.75,1.42-0.75,2.44c0,1.14,0.29,1.99,0.86,2.55
		c0.57,0.56,1.4,0.84,2.48,0.84c0.51,0,1.01-0.08,1.51-0.25v-1.69h-2.05v-2.29h4.96V27.6z"/>
	<path class="st1" d="M66.88,28.95l-0.15-1.14c-0.56,0.9-1.42,1.36-2.58,1.36c-0.51,0-0.97-0.11-1.38-0.33
		c-0.41-0.22-0.74-0.52-0.98-0.91c-0.24-0.38-0.36-0.83-0.36-1.34c0-0.96,0.38-1.71,1.13-2.24c0.75-0.53,1.74-0.8,2.97-0.8
		c0.38,0,0.79,0.03,1.22,0.1c-0.05-0.43-0.23-0.75-0.55-0.97c-0.32-0.22-0.71-0.33-1.18-0.33c-0.41,0-0.82,0.08-1.23,0.23
		c-0.41,0.15-0.8,0.34-1.18,0.55l-1-1.9c0.56-0.36,1.17-0.64,1.83-0.84c0.65-0.2,1.31-0.3,1.97-0.3c0.79,0,1.5,0.14,2.13,0.41
		c0.63,0.27,1.13,0.68,1.49,1.24c0.36,0.55,0.54,1.25,0.54,2.1v5.1H66.88z M64.29,26.16c0,0.26,0.1,0.47,0.29,0.64
		c0.19,0.16,0.44,0.25,0.75,0.25c0.41,0,0.75-0.14,1.02-0.42c0.28-0.28,0.42-0.62,0.42-1.04v-0.29c-0.31-0.06-0.63-0.08-0.97-0.08
		c-0.43,0-0.79,0.07-1.08,0.22C64.44,25.57,64.29,25.82,64.29,26.16z"/>
	<path class="st1" d="M78.59,26.75v2.2h-7.64v-1.85l3.93-4.57H71.2v-2.2h7.25v1.85l-3.9,4.57H78.59z"/>
	<path class="st1" d="M88.32,28.07c-0.43,0.31-0.97,0.56-1.63,0.78s-1.36,0.32-2.11,0.32c-1.03,0-1.91-0.19-2.63-0.57
		c-0.73-0.38-1.29-0.91-1.68-1.58c-0.39-0.68-0.58-1.46-0.58-2.34c0-0.89,0.19-1.68,0.58-2.37c0.38-0.69,0.92-1.23,1.59-1.62
		c0.68-0.39,1.47-0.58,2.37-0.58c0.88,0,1.66,0.19,2.33,0.57c0.67,0.38,1.2,0.9,1.58,1.58c0.38,0.67,0.57,1.46,0.57,2.36
		c0,0.12-0.01,0.25-0.03,0.39c-0.02,0.14-0.04,0.28-0.06,0.42h-6.02c0.27,0.99,1.01,1.49,2.22,1.49c0.54,0,1.02-0.08,1.44-0.25
		c0.42-0.17,0.77-0.34,1.05-0.51L88.32,28.07z M84.28,22.24c-0.96,0-1.54,0.51-1.73,1.52h3.29c-0.08-0.55-0.27-0.95-0.57-1.18
		C84.98,22.36,84.65,22.24,84.28,22.24z"/>
	<path class="st1" d="M96.55,28.39c-0.35,0.24-0.75,0.43-1.2,0.57c-0.45,0.14-0.93,0.21-1.42,0.21c-0.93,0-1.66-0.27-2.21-0.8
		c-0.55-0.54-0.82-1.26-0.82-2.16v-3.68h-1.41v-2.2h1.54l0.37-2.41h2.44v2.41h2.25v2.2h-2.25v3.3c0,0.29,0.09,0.52,0.26,0.69
		c0.18,0.16,0.41,0.25,0.7,0.25c0.15,0,0.3-0.03,0.45-0.08c0.15-0.06,0.3-0.12,0.43-0.2L96.55,28.39z"/>
	<path class="st1" d="M104.31,28.39c-0.35,0.24-0.75,0.43-1.2,0.57c-0.45,0.14-0.93,0.21-1.42,0.21c-0.93,0-1.66-0.27-2.21-0.8
		c-0.55-0.54-0.82-1.26-0.82-2.16v-3.68h-1.41v-2.2h1.54l0.37-2.41h2.44v2.41h2.25v2.2h-2.25v3.3c0,0.29,0.09,0.52,0.26,0.69
		c0.18,0.16,0.41,0.25,0.7,0.25c0.15,0,0.3-0.03,0.45-0.08c0.15-0.06,0.3-0.12,0.43-0.2L104.31,28.39z"/>
	<path class="st1" d="M113.58,28.07c-0.43,0.31-0.97,0.56-1.64,0.78s-1.36,0.32-2.11,0.32c-1.03,0-1.91-0.19-2.63-0.57
		c-0.73-0.38-1.29-0.91-1.68-1.58c-0.39-0.68-0.58-1.46-0.58-2.34c0-0.89,0.19-1.68,0.58-2.37c0.38-0.69,0.91-1.23,1.59-1.62
		c0.68-0.39,1.47-0.58,2.37-0.58c0.88,0,1.66,0.19,2.33,0.57c0.67,0.38,1.2,0.9,1.58,1.58c0.38,0.67,0.57,1.46,0.57,2.36
		c0,0.12-0.01,0.25-0.03,0.39c-0.02,0.14-0.04,0.28-0.06,0.42h-6.01c0.27,0.99,1.01,1.49,2.22,1.49c0.54,0,1.02-0.08,1.44-0.25
		c0.42-0.17,0.77-0.34,1.05-0.51L113.58,28.07z M109.55,22.24c-0.96,0-1.54,0.51-1.73,1.52h3.29c-0.08-0.55-0.27-0.95-0.57-1.18
		C110.24,22.36,109.91,22.24,109.55,22.24z"/>
	<path class="st0" d="M117.01,29.14c-0.36,0-0.69-0.09-0.99-0.26c-0.3-0.18-0.54-0.41-0.71-0.71c-0.18-0.3-0.26-0.63-0.26-0.99
		c0-0.36,0.09-0.69,0.26-0.99c0.18-0.3,0.41-0.54,0.71-0.71c0.3-0.17,0.63-0.26,0.99-0.26c0.36,0,0.69,0.09,0.99,0.26
		c0.3,0.18,0.54,0.41,0.71,0.71c0.18,0.3,0.26,0.63,0.26,0.99c0,0.36-0.09,0.69-0.26,0.99c-0.18,0.3-0.41,0.54-0.71,0.71
		C117.7,29.05,117.37,29.14,117.01,29.14z"/>
</g>
</svg>
